# xmcd
#
# Track frame offsets:
#	150
#	10390
#	22084
#	36224
#	49605
#	61098
#	74345
#	87106
#	95802
#	110872
#	122239
#	130972
#	142770
#	157717
#	173862
#	188786
#	203383
#	216255
#	229080
#	240774
#	252400
#	265905
#	277842
#	290892
#	300673
#	314061
#	332195
#	346484
#
# Disc length: 4795 seconds
#
# Revision: 1
# Processed by: cddbd v1.5.2PL0 Copyright (c) Steve Scherf et al.
# Submitted via: EasyCDDAExtractor 9.1.1.1
#
DISCID=9d12b91c
DTITLE=Various Artist - CD 1
DYEAR=2006
DGENRE=Pop
TTITLE0=Louis Armstrong - What A Wonderful World
TTITLE1=Frank Sinatra - Strangers In The Night
TTITLE2=Andy Williams - Can't Take My Eyes Off You
TTITLE3=BJ Thomas - Raindrops Keep Falling On My Head
TTITLE4=Demis Roussos - From Souvenirs To Souvenirs
TTITLE5=Roy Orbison - Pretty Woman
TTITLE6=Dalida - Besame Mucho
TTITLE7=Ray Charles - Hit The Road Jack
TTITLE8=Louis Armstrong - Mack The Knife
TTITLE9=The Platters - Sixteen Tons
TTITLE10=Dean Martin - Let It Snow Let It Snow       
TTITLE11=Nancy Sinatra - Somethin' Stupid              
TTITLE12=Joe Dassin - Salut
TTITLE13=Roger Whitaker - Mamy Blue
TTITLE14=Pierre Bachelet - Emmanuelle
TTITLE15=Michel Fugain - Una Bella Historie
TTITLE16=Tom Jones - She's A Lady
TTITLE17=Joe Dassin - A Toi
TTITLE18=The Platters - Only You
TTITLE19=The Cascades - Rhythm Of The Rain
TTITLE20=The Andrews Sisters - Rom And Coca-Cola
TTITLE21=Perry Como - Papa Loves Mambo
TTITLE22=Kenny Ball and The Jazzmen - Midnight In Moscow
TTITLE23=New Vauderville Band - Winchester Cathedral
TTITLE24=Elvis Presley - Can't Help Falling In Love
TTITLE25=Barry White - Can't Get Enough Of Your Love 
TTITLE26=Andy Williams - Love Story
TTITLE27=Salvatore Adamo - Tombe La Neige
EXTD=
EXTT0=
EXTT1=
EXTT2=
EXTT3=
EXTT4=
EXTT5=
EXTT6=
EXTT7=
EXTT8=
EXTT9=
EXTT10=
EXTT11=
EXTT12=
EXTT13=
EXTT14=
EXTT15=
EXTT16=
EXTT17=
EXTT18=
EXTT19=
EXTT20=
EXTT21=
EXTT22=
EXTT23=
EXTT24=
EXTT25=
EXTT26=
EXTT27=
PLAYORDER=
